# Blender 4.3.2
# www.blender.org
mtllib rober.mtl
g rober_Cube.018
v -1.026386 1.146356 1.799589
v -1.026386 1.311396 1.966928
v -1.026386 0.611789 -1.799589
v -1.026386 0.776829 -1.966928
v 4.973614 1.069178 1.799589
v 4.973614 1.234219 1.966928
v 4.973614 0.896889 -1.799589
v 4.973614 1.061929 -1.966928
v -1.026386 1.041923 0.000000
v -1.026386 1.206963 0.000000
v 4.973614 1.041923 0.000000
v 4.973614 1.206963 0.000000
v -1.026386 1.206963 -0.446233
v 4.973614 1.041923 -0.408269
v -1.026386 1.041923 -0.408269
v 4.973614 1.206963 -0.446233
v -1.026386 1.041923 0.408269
v 4.973614 1.206963 0.446233
v -1.026386 1.206963 0.446233
v 4.973614 1.041923 0.408269
v 1.973614 0.896889 -1.799589
v 1.973614 1.061929 -1.966928
v 1.973614 0.896889 1.799589
v 1.973614 1.061929 1.966928
v 1.973614 1.206963 0.000000
v -1.026386 1.041923 -0.408269
v 1.973614 1.041923 -0.408269
v 1.973614 1.206963 -0.446233
v 1.973614 1.206963 0.446233
v 1.973614 1.041923 0.408269
v 4.973614 0.897601 1.206581
v 3.473614 0.660044 1.799589
v 4.973614 0.732561 1.103929
v 3.473614 0.825084 1.966928
v -1.026386 1.041923 -0.408269
v -1.026386 1.041923 0.000000
v 4.973614 1.041923 0.408269
v 4.973614 1.041923 0.000000
v -1.026386 1.011565 -0.408269
v 4.973614 1.041923 -0.408269
v 1.973614 1.041923 -0.408269
v -1.026386 1.041923 0.408269
v 1.973614 1.041923 0.408269
v -1.026386 1.041923 0.000000
v 4.973614 1.041923 0.408269
v 4.973614 1.041923 0.000000
v 0.008170 0.364959 -0.267477
v 4.973614 1.041923 -0.408269
v 1.973614 1.041923 -0.408269
v -1.026386 1.041923 0.408269
v 1.973614 1.041923 0.408269
v -1.026386 1.011565 0.000000
v 4.973614 1.011565 0.408269
v 4.973614 1.011565 0.000000
v 4.973614 1.011565 -0.408269
v 1.973614 1.011565 -0.408269
v -1.026386 1.011565 0.408269
v 1.973614 1.011565 0.408269
v 0.008170 0.364959 0.000000
v 3.939057 0.364959 0.267477
v 3.939057 0.364959 0.000000
v 1.973614 0.364959 0.000000
v 3.939057 0.364959 -0.267477
v 1.973614 0.364959 -0.267477
v 0.008170 0.364959 0.267477
v 1.973614 0.364959 0.267477
v 0.159544 2.964702 0.150209
v 0.225630 2.964702 -0.009335
v 0.159544 2.964702 -0.168879
v -0.000000 2.964702 -0.234965
v -0.159544 2.964702 -0.168879
v -0.225630 2.964702 -0.009335
v -0.159544 2.964702 0.150209
v -0.000000 2.964702 0.216295
v 0.159544 3.881936 0.150209
v 0.225630 3.881936 -0.009335
v 0.159544 3.881936 -0.168879
v -0.000000 3.881936 -0.234965
v -0.159544 3.881936 -0.168879
v -0.225630 3.881936 -0.009335
v -0.159544 3.881936 0.150209
v -0.000000 3.881936 0.216295
v -0.180769 4.628337 1.252982
v -0.000000 1.407160 0.216295
v -0.318146 4.063860 -1.348775
v -0.159544 1.407160 0.150209
v -0.278031 4.387751 1.310316
v -0.225630 1.407160 -0.009335
v -0.415408 3.823273 -1.291441
v -0.159544 1.407160 -0.168879
v -0.172190 4.148418 1.356653
v -0.000000 1.407160 -0.234965
v -0.309567 3.583941 -1.245105
v 0.159544 1.407160 -0.168879
v 0.074755 4.050539 1.364850
v 0.225630 1.407160 -0.009335
v -0.062622 3.486062 -1.236908
v 0.159544 1.407160 0.150209
v -0.159544 1.116747 0.150209
v -0.000000 1.116747 0.216295
v -0.225630 1.116747 -0.009335
v -0.159544 1.116747 -0.168879
v -0.000000 1.116747 -0.234965
v 0.159544 1.116747 -0.168879
v 0.225630 1.116747 -0.009335
v 0.159544 1.116747 0.150209
v 0.318146 4.151449 1.330104
v 0.180769 3.586972 -1.271652
v 0.415408 4.392036 1.272771
v 0.278031 3.827559 -1.328986
v 0.309567 4.631368 1.226434
v 0.172190 4.066891 -1.375323
v 0.062622 4.729247 1.218238
v -0.074755 4.164770 -1.383520
v -0.000000 2.506085 0.082851
v -0.159544 2.506085 0.016766
v -0.225630 2.506085 -0.142778
v -0.159544 2.506085 -0.302323
v -0.000000 2.506085 -0.368408
v 0.159544 2.506085 -0.302323
v 0.225630 2.506085 -0.142778
v 0.159544 2.506085 0.016766
v -0.000000 2.506085 0.082851
v -0.159544 2.506085 0.016766
v -0.225630 2.506085 -0.142778
v -0.159544 2.506085 -0.302323
v -0.000000 2.506085 -0.368408
v 0.159544 2.506085 -0.302323
v 0.225630 2.506085 -0.142778
v 0.159544 2.506085 0.016766
v -0.000000 2.506085 0.082851
v -0.159544 2.506085 0.016766
v -0.225630 2.506085 -0.142778
v -0.159544 2.506085 -0.302323
v -0.000000 2.506085 -0.368408
v 0.159544 2.506085 -0.302323
v 0.225630 2.506085 -0.142778
v 0.159544 2.506085 0.016766
v 0.065056 0.408810 0.729335
v 0.065056 0.408810 -0.737308
v 0.042553 0.418132 0.729335
v 0.042553 0.418131 -0.737308
v 0.033232 0.440635 0.729335
v 0.033232 0.440635 -0.737308
v 0.042553 0.463138 0.729335
v 0.042553 0.463138 -0.737308
v 0.065056 0.472459 0.729335
v 0.065056 0.472459 -0.737308
v 0.087560 0.463138 0.729335
v 0.087560 0.463138 -0.737308
v 0.096881 0.440635 0.729335
v 0.096881 0.440635 -0.737308
v 0.087560 0.418132 0.729335
v 0.087560 0.418131 -0.737308
v -0.000000 0.770665 -1.068796
v -0.000000 0.770665 -0.406584
v 0.234127 0.673686 -1.068796
v 0.234127 0.673686 -0.406584
v 0.331106 0.439559 -1.068796
v 0.331106 0.439559 -0.406584
v 0.234127 0.205431 -1.068796
v 0.234127 0.205432 -0.406584
v 0.000000 0.108453 -1.068796
v -0.000000 0.108453 -0.406584
v -0.234127 0.205431 -1.068796
v -0.234127 0.205432 -0.406584
v -0.331106 0.439559 -1.068796
v -0.331106 0.439559 -0.406584
v -0.234127 0.673686 -1.068796
v -0.234127 0.673686 -0.406584
v -0.000000 0.770665 0.398113
v -0.000000 0.770665 1.060325
v 0.234127 0.673686 0.398113
v 0.234127 0.673686 1.060325
v 0.331106 0.439559 0.398113
v 0.331106 0.439559 1.060325
v 0.234127 0.205431 0.398113
v 0.234127 0.205432 1.060325
v 0.000000 0.108453 0.398113
v -0.000000 0.108453 1.060325
v -0.234127 0.205431 0.398113
v -0.234127 0.205432 1.060325
v -0.331106 0.439559 0.398113
v -0.331106 0.439559 1.060325
v -0.234127 0.673686 0.398113
v -0.234127 0.673686 1.060325
v 3.981967 0.882189 0.635241
v 3.934844 0.516430 1.185263
v 4.176847 0.740096 0.557447
v 4.129724 0.374336 1.107469
v 4.200811 0.529080 0.419177
v 4.153687 0.163321 0.969198
v 4.039823 0.372753 0.301427
v 3.992699 0.006993 0.851449
v 3.788186 0.362688 0.273175
v 3.741063 -0.003072 0.823197
v 3.593307 0.504781 0.350970
v 3.546183 0.139022 0.900992
v 3.569342 0.715797 0.489240
v 3.522219 0.350037 1.039262
v 3.730331 0.872124 0.606989
v 3.683208 0.506365 1.157011
v 3.861515 0.770665 -1.068796
v 3.861515 0.770665 -0.406584
v 4.095643 0.673686 -1.068796
v 4.095643 0.673686 -0.406584
v 4.192621 0.439559 -1.068796
v 4.192621 0.439559 -0.406584
v 4.095643 0.205431 -1.068796
v 4.095643 0.205432 -0.406584
v 3.861515 0.108453 -1.068796
v 3.861515 0.108453 -0.406584
v 3.627388 0.205431 -1.068796
v 3.627388 0.205432 -0.406584
v 3.530409 0.439559 -1.068796
v 3.530409 0.439559 -0.406584
v 3.627388 0.673686 -1.068796
v 3.627388 0.673686 -0.406584
v 3.926571 0.408810 0.729335
v 3.926571 0.408810 -0.737308
v 3.904068 0.418132 0.729335
v 3.904068 0.418131 -0.737308
v 3.894747 0.440635 0.729335
v 3.894747 0.440635 -0.737308
v 3.904068 0.463138 0.729335
v 3.904068 0.463138 -0.737308
v 3.926571 0.472459 0.729335
v 3.926571 0.472459 -0.737308
v 3.949075 0.463138 0.729335
v 3.949075 0.463138 -0.737308
v 3.958396 0.440635 0.729335
v 3.958396 0.440635 -0.737308
v 3.949075 0.418132 0.729335
v 3.949075 0.418131 -0.737308
vn -1.0000 -0.0000 -0.0000
vn -0.0000 -0.7120 -0.7022
vn 1.0000 -0.0000 -0.0000
vn -0.0591 -0.7107 0.7010
vn 0.2384 -0.8742 0.4230
vn 0.0415 0.9990 0.0133
vn -0.0000 1.0000 -0.0000
vn -0.0000 -0.9946 0.1037
vn -0.0466 0.9815 -0.1856
vn -0.0000 0.9955 -0.0949
vn 0.0465 -0.9782 0.2022
vn -0.2420 0.8872 -0.3928
vn -0.0415 -0.9990 -0.0146
vn -0.1117 -0.7075 0.6978
vn 0.0675 -0.7104 -0.7006
vn 0.1906 -0.6989 0.6893
vn 0.0658 0.9727 0.2226
vn -0.0655 -0.9680 -0.2422
vn -0.0000 -0.0000 -1.0000
vn -0.0000 -0.0000 1.0000
vn -0.0000 -0.2128 -0.9771
vn 0.5300 -0.8480 -0.0000
vn -0.5300 -0.8480 -0.0000
vn -0.0000 -1.0000 -0.0000
vn -0.0000 -0.2128 0.9771
vn 0.3827 -0.0000 -0.9239
vn 0.9239 -0.0000 -0.3827
vn 0.9239 -0.0000 0.3827
vn 0.3827 -0.0000 0.9239
vn -0.3827 -0.0000 0.9239
vn -0.9239 -0.0000 0.3827
vn -0.9239 -0.0000 -0.3827
vn -0.3827 -0.0000 -0.9239
vn -0.0515 -0.2117 -0.9760
vn 0.3803 -0.1115 -0.9181
vn 0.9229 -0.0464 -0.3823
vn 0.9229 0.0464 0.3823
vn 0.3803 0.1115 0.9181
vn -0.3803 0.1115 0.9181
vn -0.9229 0.0464 0.3823
vn -0.9229 -0.0464 -0.3823
vn -0.3803 -0.1115 -0.9181
vn -0.3983 0.9006 -0.1744
vn -0.9292 0.3683 -0.0308
vn 0.0515 0.2117 0.9760
vn -0.9158 -0.3797 0.1307
vn -0.3660 -0.9053 0.2157
vn 0.3983 -0.9006 0.1744
vn 0.9292 -0.3683 0.0308
vn 0.9158 0.3797 -0.1307
vn 0.3660 0.9053 -0.2157
vn -0.3696 0.2596 -0.8922
vn -0.9182 0.1107 -0.3803
vn -0.9182 -0.1107 0.3803
vn -0.3696 -0.2596 0.8922
vn 0.3696 -0.2596 0.8922
vn 0.9182 -0.1107 0.3803
vn 0.9182 0.1107 -0.3803
vn 0.3696 0.2596 -0.8922
vn 0.3827 0.9239 -0.0000
vn 0.9239 0.3827 -0.0000
vn 0.9239 -0.3827 -0.0000
vn 0.3827 -0.9239 -0.0000
vn -0.3827 -0.9239 -0.0000
vn -0.9239 -0.3827 -0.0000
vn -0.9239 0.3827 -0.0000
vn -0.3827 0.9239 -0.0000
vn 0.6353 0.6169 0.4646
vn 0.9930 0.0397 0.1115
vn 0.7690 -0.5607 -0.3070
vn 0.0946 -0.8327 -0.5456
vn -0.6353 -0.6169 -0.4646
vn -0.9930 -0.0397 -0.1115
vn -0.0712 -0.5523 0.8306
vn -0.7690 0.5607 0.3070
vn -0.0946 0.8327 0.5456
vn 0.0712 0.5523 -0.8306
vt 0.375000 0.187500
vt 0.625000 0.187500
vt 0.625000 0.250000
vt 0.375000 0.250000
vt 0.375000 0.375000
vt 0.625000 0.375000
vt 0.625000 0.500000
vt 0.375000 0.500000
vt 0.375000 0.718750
vt 0.625000 0.718750
vt 0.625000 0.750000
vt 0.375000 0.750000
vt 0.375000 0.875000
vt 0.625000 0.875000
vt 0.625000 1.000000
vt 0.375000 1.000000
vt 0.312500 0.750000
vt 0.750000 0.687500
vt 0.875000 0.687500
vt 0.875000 0.750000
vt 0.750000 0.750000
vt 0.750000 0.562500
vt 0.875000 0.562500
vt 0.875000 0.625000
vt 0.750000 0.625000
vt 0.375000 0.687500
vt 0.250000 0.687500
vt 0.375000 0.562500
vt 0.625000 0.562500
vt 0.625000 0.625000
vt 0.375000 0.625000
vt 0.375000 0.062500
vt 0.625000 0.062500
vt 0.625000 0.125000
vt 0.375000 0.125000
vt 0.250000 0.500000
vt 0.250000 0.562500
vt 0.750000 0.500000
vt 0.875000 0.500000
vt 0.375000 0.000000
vt 0.625000 0.000000
vt 0.125000 0.562500
vt 0.625000 0.687500
vt 0.125000 0.500000
vt 0.687500 0.750000
vt 0.125000 0.687500
vt 0.250000 0.750000
vt 0.125000 0.750000
vt 0.375000 0.812500
vt 0.625000 0.812500
vt 0.250000 0.625000
vt 0.125000 0.625000
vt 1.000000 0.500000
vt 1.000000 0.750000
vt 0.500000 0.750000
vt 0.500000 0.500000
vt 0.000000 0.750000
vt 0.000000 0.500000
vt 0.750000 0.490000
vt 0.919706 0.419706
vt 0.990000 0.250000
vt 0.919706 0.080294
vt 0.750000 0.010000
vt 0.580294 0.080294
vt 0.510000 0.250000
vt 0.580294 0.419706
vt 1.000000 0.875000
vt 1.000000 1.000000
vt 0.875000 1.000000
vt 0.875000 0.875000
vt 0.750000 1.000000
vt 0.750000 0.875000
vt 0.500000 1.000000
vt 0.500000 0.875000
vt 0.250000 1.000000
vt 0.250000 0.875000
vt 0.125000 1.000000
vt 0.125000 0.875000
vt 0.000000 1.000000
vt 0.000000 0.875000
vt 0.419706 0.419706
vt 0.250000 0.490000
vt 0.080294 0.419706
vt 0.010000 0.250000
vt 0.080294 0.080294
vt 0.250000 0.010000
vt 0.419706 0.080294
vt 0.490000 0.250000
s 0
f 15/1/1 13/2/1 4/3/1 3/4/1
f 21/5/2 22/6/2 8/7/2 7/8/2
f 33/9/3 31/10/3 6/11/3 5/12/3
f 23/13/4 24/14/4 2/15/4 1/16/4
f 32/17/5 33/9/5 5/12/5
f 29/18/6 19/19/6 2/20/6 24/21/6
f 28/22/7 13/23/7 10/24/7 25/25/7
f 20/26/7 30/27/7 43/27/7 37/26/7
f 14/28/3 16/29/3 12/30/3 11/31/3
f 17/32/1 19/33/1 10/34/1 9/35/1
f 7/8/3 8/7/3 16/29/3 14/28/3
f 21/36/8 7/8/8 14/28/8 27/37/8
f 22/38/9 4/39/9 13/23/9 28/22/9
f 9/35/1 10/34/1 13/2/1 15/1/1
f 1/40/1 2/41/1 19/33/1 17/32/1
f 25/25/7 10/24/7 19/19/7 29/18/7
f 15/42/7 27/37/7 41/37/7 35/42/7
f 11/31/3 12/30/3 18/43/3 20/26/3
f 11/31/7 20/26/7 37/26/7 38/31/7
f 12/30/7 25/25/7 29/18/7 18/43/7
f 8/7/10 22/38/10 28/22/10 16/29/10
f 3/44/11 21/36/11 27/37/11 15/42/11
f 27/37/7 14/28/7 40/28/7 41/37/7
f 16/29/7 28/22/7 25/25/7 12/30/7
f 31/10/12 34/45/12 6/11/12
f 17/46/13 30/27/13 23/47/13 1/48/13
f 32/49/14 34/50/14 24/14/14 23/13/14
f 3/4/15 4/3/15 22/6/15 21/5/15
f 5/12/16 6/11/16 34/50/16 32/49/16
f 18/43/17 29/18/17 24/21/17 34/45/17 31/10/17
f 30/27/18 20/26/18 33/9/18 32/17/18 23/47/18
f 20/26/3 18/43/3 31/10/3 33/9/3
f 37/26/7 43/27/7 51/27/7 45/26/7
f 36/35/7 35/1/7 26/1/7 44/35/7
f 35/42/7 41/37/7 49/37/7 26/42/7
f 43/27/7 42/46/7 50/46/7 51/27/7
f 30/27/7 17/46/7 42/46/7 43/27/7
f 9/35/7 15/1/7 35/1/7 36/35/7
f 14/28/7 11/31/7 38/31/7 40/28/7
f 17/32/7 9/35/7 36/35/7 42/32/7
f 26/42/19 49/37/19 56/37/19 39/42/19
f 51/27/20 50/46/20 57/46/20 58/27/20
f 49/37/19 48/28/19 55/28/19 56/37/19
f 46/31/3 45/26/3 53/26/3 54/31/3
f 42/32/7 36/35/7 44/35/7 50/32/7
f 40/28/7 38/31/7 46/31/7 48/28/7
f 38/31/7 37/26/7 45/26/7 46/31/7
f 41/37/7 40/28/7 48/28/7 49/37/7
f 56/37/21 55/28/21 63/28/21 64/37/21
f 54/31/22 53/26/22 60/26/22 61/31/22
f 55/28/22 54/31/22 61/31/22 63/28/22
f 57/32/23 52/35/23 59/35/23 65/32/23
f 44/35/1 26/1/1 39/1/1 52/35/1
f 45/26/20 51/27/20 58/27/20 53/26/20
f 50/32/1 44/35/1 52/35/1 57/32/1
f 48/28/3 46/31/3 54/31/3 55/28/3
f 64/37/24 63/28/24 61/31/24 62/51/24
f 62/51/24 61/31/24 60/26/24 66/27/24
f 59/52/24 62/51/24 66/27/24 65/46/24
f 47/42/24 64/37/24 62/51/24 59/52/24
f 58/27/25 57/46/25 65/46/25 66/27/25
f 39/42/21 56/37/21 64/37/21 47/42/21
f 52/35/23 39/1/23 47/1/23 59/35/23
f 53/26/25 58/27/25 66/27/25 60/26/25
f 82/53/26 74/54/26 73/20/26 81/39/26
f 81/39/27 73/20/27 72/21/27 80/38/27
f 80/38/28 72/21/28 71/11/28 79/7/28
f 79/7/29 71/11/29 70/55/29 78/56/29
f 78/56/30 70/55/30 69/12/30 77/8/30
f 77/8/31 69/12/31 68/47/31 76/36/31
f 76/36/32 68/47/32 67/48/32 75/44/32
f 75/44/33 67/48/33 74/57/33 82/58/33
f 82/59/24 81/60/24 80/61/24 79/62/24 78/63/24 77/64/24 76/65/24 75/66/24
f 114/59/34 112/60/34 110/61/34 108/62/34 97/63/34 93/64/34 89/65/34 85/66/34
f 115/67/35 84/68/35 86/69/35 116/70/35
f 116/70/36 86/69/36 88/71/36 117/72/36
f 117/72/37 88/71/37 90/15/37 118/14/37
f 118/14/38 90/15/38 92/73/38 119/74/38
f 119/74/39 92/73/39 94/16/39 120/13/39
f 120/13/40 94/16/40 96/75/40 121/76/40
f 88/71/27 86/69/27 99/69/27 101/71/27
f 121/76/41 96/75/41 98/77/41 122/78/41
f 122/78/42 98/77/42 84/79/42 115/80/42
f 85/44/43 83/77/43 113/79/43 114/58/43
f 99/81/7 100/82/7 106/83/7 105/84/7 104/85/7 103/86/7 102/87/7 101/88/7
f 94/16/30 92/73/30 103/73/30 104/16/30
f 84/79/33 98/77/33 106/77/33 100/79/33
f 86/69/26 84/68/26 100/68/26 99/69/26
f 90/15/28 88/71/28 101/71/28 102/15/28
f 96/75/31 94/16/31 104/16/31 105/75/31
f 92/73/29 90/15/29 102/15/29 103/73/29
f 98/77/32 96/75/32 105/75/32 106/77/32
f 89/36/44 87/75/44 83/77/44 85/44/44
f 111/81/45 113/82/45 83/83/45 87/84/45 91/85/45 95/86/45 107/87/45 109/88/45
f 93/8/46 91/16/46 87/75/46 89/36/46
f 97/56/47 95/73/47 91/16/47 93/8/47
f 108/7/48 107/15/48 95/73/48 97/56/48
f 110/38/49 109/71/49 107/15/49 108/7/49
f 112/39/50 111/69/50 109/71/50 110/38/50
f 114/53/51 113/68/51 111/69/51 112/39/51
f 119/74/7 120/13/7 128/13/7 127/74/7
f 117/72/7 118/14/7 126/14/7 125/72/7
f 115/67/7 116/70/7 124/70/7 123/67/7
f 122/78/7 115/80/7 123/80/7 130/78/7
f 120/13/7 121/76/7 129/76/7 128/13/7
f 118/14/7 119/74/7 127/74/7 126/14/7
f 116/70/7 117/72/7 125/72/7 124/70/7
f 121/76/7 122/78/7 130/78/7 129/76/7
f 125/72/7 126/14/7 134/14/7 133/72/7
f 123/67/7 124/70/7 132/70/7 131/67/7
f 130/78/7 123/80/7 131/80/7 138/78/7
f 128/13/7 129/76/7 137/76/7 136/13/7
f 126/14/7 127/74/7 135/74/7 134/14/7
f 124/70/7 125/72/7 133/72/7 132/70/7
f 129/76/7 130/78/7 138/78/7 137/76/7
f 127/74/7 128/13/7 136/13/7 135/74/7
f 67/48/52 138/78/52 131/80/52 74/57/52
f 68/47/53 137/76/53 138/78/53 67/48/53
f 69/12/54 136/13/54 137/76/54 68/47/54
f 70/55/55 135/74/55 136/13/55 69/12/55
f 71/11/56 134/14/56 135/74/56 70/55/56
f 72/21/57 133/72/57 134/14/57 71/11/57
f 73/20/58 132/70/58 133/72/58 72/21/58
f 74/54/59 131/67/59 132/70/59 73/20/59
f 139/53/60 140/68/60 142/69/60 141/39/60
f 141/39/61 142/69/61 144/71/61 143/38/61
f 143/38/62 144/71/62 146/15/62 145/7/62
f 145/7/63 146/15/63 148/73/63 147/56/63
f 147/56/64 148/73/64 150/16/64 149/8/64
f 149/8/65 150/16/65 152/75/65 151/36/65
f 142/81/20 140/82/20 154/83/20 152/84/20 150/85/20 148/86/20 146/87/20 144/88/20
f 151/36/66 152/75/66 154/77/66 153/44/66
f 153/44/67 154/77/67 140/79/67 139/58/67
f 139/59/19 141/60/19 143/61/19 145/62/19 147/63/19 149/64/19 151/65/19 153/66/19
f 155/53/60 156/68/60 158/69/60 157/39/60
f 157/39/61 158/69/61 160/71/61 159/38/61
f 159/38/62 160/71/62 162/15/62 161/7/62
f 161/7/63 162/15/63 164/73/63 163/56/63
f 163/56/64 164/73/64 166/16/64 165/8/64
f 165/8/65 166/16/65 168/75/65 167/36/65
f 158/81/20 156/82/20 170/83/20 168/84/20 166/85/20 164/86/20 162/87/20 160/88/20
f 167/36/66 168/75/66 170/77/66 169/44/66
f 169/44/67 170/77/67 156/79/67 155/58/67
f 155/59/19 157/60/19 159/61/19 161/62/19 163/63/19 165/64/19 167/65/19 169/66/19
f 171/53/60 172/68/60 174/69/60 173/39/60
f 173/39/61 174/69/61 176/71/61 175/38/61
f 175/38/62 176/71/62 178/15/62 177/7/62
f 177/7/63 178/15/63 180/73/63 179/56/63
f 179/56/64 180/73/64 182/16/64 181/8/64
f 181/8/65 182/16/65 184/75/65 183/36/65
f 174/81/20 172/82/20 186/83/20 184/84/20 182/85/20 180/86/20 178/87/20 176/88/20
f 183/36/66 184/75/66 186/77/66 185/44/66
f 185/44/67 186/77/67 172/79/67 171/58/67
f 171/59/19 173/60/19 175/61/19 177/62/19 179/63/19 181/64/19 183/65/19 185/66/19
f 187/53/68 188/68/68 190/69/68 189/39/68
f 189/39/69 190/69/69 192/71/69 191/38/69
f 191/38/70 192/71/70 194/15/70 193/7/70
f 193/7/71 194/15/71 196/73/71 195/56/71
f 195/56/72 196/73/72 198/16/72 197/8/72
f 197/8/73 198/16/73 200/75/73 199/36/73
f 190/81/74 188/82/74 202/83/74 200/84/74 198/85/74 196/86/74 194/87/74 192/88/74
f 199/36/75 200/75/75 202/77/75 201/44/75
f 201/44/76 202/77/76 188/79/76 187/58/76
f 187/59/77 189/60/77 191/61/77 193/62/77 195/63/77 197/64/77 199/65/77 201/66/77
f 203/53/60 204/68/60 206/69/60 205/39/60
f 205/39/61 206/69/61 208/71/61 207/38/61
f 207/38/62 208/71/62 210/15/62 209/7/62
f 209/7/63 210/15/63 212/73/63 211/56/63
f 211/56/64 212/73/64 214/16/64 213/8/64
f 213/8/65 214/16/65 216/75/65 215/36/65
f 206/81/20 204/82/20 218/83/20 216/84/20 214/85/20 212/86/20 210/87/20 208/88/20
f 215/36/66 216/75/66 218/77/66 217/44/66
f 217/44/67 218/77/67 204/79/67 203/58/67
f 203/59/19 205/60/19 207/61/19 209/62/19 211/63/19 213/64/19 215/65/19 217/66/19
f 219/53/60 220/68/60 222/69/60 221/39/60
f 221/39/61 222/69/61 224/71/61 223/38/61
f 223/38/62 224/71/62 226/15/62 225/7/62
f 225/7/63 226/15/63 228/73/63 227/56/63
f 227/56/64 228/73/64 230/16/64 229/8/64
f 229/8/65 230/16/65 232/75/65 231/36/65
f 222/81/20 220/82/20 234/83/20 232/84/20 230/85/20 228/86/20 226/87/20 224/88/20
f 231/36/66 232/75/66 234/77/66 233/44/66
f 233/44/67 234/77/67 220/79/67 219/58/67
f 219/59/19 221/60/19 223/61/19 225/62/19 227/63/19 229/64/19 231/65/19 233/66/19
