# Blender 4.3.2
# www.blender.org
mtllib rock5.mtl
g rock5_Cube.014
v -1.100000 0.000000 1.000000
v -1.100000 0.231275 1.000000
v -1.100000 0.000000 -1.000000
v -0.779683 0.523070 -0.254317
v 1.478307 0.000000 0.789770
v 0.962295 0.231275 0.669116
v 0.900000 0.000000 -1.000000
v 0.425165 0.742646 -0.383472
v -0.168871 0.000000 -1.648998
v -0.176553 0.990928 -0.147040
v 0.557068 0.000000 1.249284
v 0.327518 0.231275 1.020521
v -0.860796 0.000000 1.449119
v -0.860796 0.285106 1.449119
v -0.100000 0.285106 1.539674
v -0.100000 0.000000 1.539674
vn -0.9006 0.4318 -0.0499
vn 0.2576 0.7757 -0.5761
vn 0.6622 0.7384 -0.1270
vn 0.0056 0.9940 -0.1094
vn -0.0000 -1.0000 -0.0000
vn -0.2295 0.8863 0.4022
vn 0.3389 0.8762 0.3427
vn 0.2667 0.8166 0.5118
vn -0.4053 0.7833 -0.4713
vn -0.1182 -0.0000 0.9930
vn 0.5244 0.5288 0.6674
vn -0.8826 -0.0000 0.4701
vt 0.375000 0.000000
vt 0.625000 0.000000
vt 0.625000 0.250000
vt 0.375000 0.250000
vt 0.375000 0.375000
vt 0.625000 0.375000
vt 0.625000 0.500000
vt 0.375000 0.500000
vt 0.625000 0.750000
vt 0.375000 0.750000
vt 0.750000 0.750000
vt 0.875000 0.750000
vt 0.250000 0.500000
vt 0.250000 0.750000
vt 0.750000 0.500000
vt 0.875000 0.500000
vt 0.125000 0.500000
vt 0.125000 0.750000
vt 0.625000 0.875000
vt 0.375000 0.875000
vt 0.625000 1.000000
vt 0.375000 1.000000
s 0
f 1/1/1 2/2/1 4/3/1 3/4/1
f 9/5/2 10/6/2 8/7/2 7/8/2
f 7/8/3 8/7/3 6/9/3 5/10/3
f 12/11/4 2/12/4 14/12/4 15/11/4
f 9/13/5 7/8/5 5/10/5 11/14/5
f 10/15/6 4/16/6 2/12/6 12/11/6
f 8/7/7 10/15/7 12/11/7 6/9/7
f 3/17/5 9/13/5 11/14/5 1/18/5
f 5/10/8 6/9/8 12/19/8 11/20/8
f 3/4/9 4/3/9 10/6/9 9/5/9
f 16/20/10 15/19/10 14/21/10 13/22/10
f 11/20/11 12/19/11 15/19/11 16/20/11
f 1/18/5 11/14/5 16/14/5 13/18/5
f 2/2/12 1/1/12 13/1/12 14/2/12
