# Blender 4.3.2
# www.blender.org
mtllib rock6.mtl
g rock6_Cube.016
v -0.666198 0.001166 0.628259
v -0.463736 1.305851 0.306478
v -0.720043 0.001166 -0.467532
v -0.372425 1.425847 -0.338559
v 0.668426 0.001166 0.589158
v 0.428834 1.593964 0.418834
v 0.428834 0.001166 -0.438834
v 0.428834 1.595717 -0.438834
v -0.901460 -0.288121 -0.125097
v -0.552815 1.497544 -0.010000
v 0.428834 0.001166 -0.010000
v 0.428834 1.848021 -0.010000
v -0.336936 0.600132 0.255568
v -0.233370 0.686481 -0.332122
v 0.428834 0.698042 -0.438834
v 0.434193 0.635621 0.346974
v 0.428834 0.800581 -0.010000
v -0.428935 0.574522 -0.037990
v 0.099250 0.599098 -0.607611
v 0.113452 0.001166 -0.709977
v 0.971120 0.001166 -0.709977
v 0.847100 0.434178 -0.563727
v 1.377565 0.001166 -0.333081
v 0.861165 0.603640 0.080753
v 1.294493 0.001166 0.406404
v 1.157279 0.560330 -0.224913
v -0.428834 0.525955 -0.438834
v 0.428834 0.525955 0.418834
v -0.566271 0.500929 -0.047634
v -0.428834 0.525955 0.418834
v 0.113452 0.525955 -0.709977
v 0.971120 0.399804 -0.709977
v 0.971120 0.525955 0.147691
v 1.295001 0.462880 -0.271333
v 0.197830 0.280585 -1.054879
v 0.113452 0.001166 -1.159348
v 1.011300 0.001166 -1.320068
v 0.786291 0.154433 -1.042825
v 0.028205 1.618428 -0.388696
v -0.017451 1.557554 0.362656
v -0.061991 1.780429 -0.010000
vn -0.8455 -0.1270 -0.5187
vn -0.1372 -0.0146 -0.9904
vn 1.0000 0.0029 -0.0053
vn -0.1068 -0.0763 0.9913
vn 0.1014 -0.9795 0.1739
vn -0.4457 0.7263 0.5233
vn -0.4437 0.7865 -0.4296
vn 0.1281 -0.9381 -0.3217
vn 1.0000 -0.0000 -0.0000
vn -0.9574 -0.1590 0.2409
vn -0.4953 0.8639 0.0920
vn 0.3389 0.8877 0.3117
vn -0.0511 0.7969 0.6019
vn 0.3139 0.4986 0.8080
vn -0.0000 -1.0000 -0.0000
vn -0.5487 0.8300 -0.1007
vn 0.1845 0.9098 -0.3719
vn 0.5254 0.7823 0.3347
vn 0.1779 0.9354 -0.3056
vn 0.2775 0.8843 -0.3756
vn -0.2925 0.7536 -0.5886
vn 0.0612 0.8044 -0.5910
vn -0.3471 0.1217 -0.9299
vn 0.1430 0.7914 -0.5943
vn 0.8662 0.4127 0.2818
vn 0.7351 0.1185 -0.6675
vn -0.8790 0.4349 -0.1957
vn 0.3735 0.6777 0.6334
vn 0.0168 0.3402 0.9402
vn -0.8972 0.4080 0.1690
vn -0.0195 0.6579 -0.7529
vn 0.8451 0.4713 -0.2523
vn -0.9824 0.1215 -0.1419
vn -0.0705 0.8843 -0.4616
vn -0.1250 0.8496 0.5125
vt 0.500000 0.125000
vt 0.625000 0.125000
vt 0.625000 0.250000
vt 0.500000 0.250000
vt 0.625000 0.375000
vt 0.625000 0.500000
vt 0.500000 0.500000
vt 0.500000 0.625000
vt 0.625000 0.625000
vt 0.625000 0.750000
vt 0.500000 0.750000
vt 0.625000 0.875000
vt 0.625000 1.000000
vt 0.500000 1.000000
vt 0.125000 0.625000
vt 0.375000 0.625000
vt 0.375000 0.750000
vt 0.125000 0.750000
vt 0.750000 0.625000
vt 0.875000 0.625000
vt 0.875000 0.750000
vt 0.750000 0.750000
vt 0.750000 0.500000
vt 0.875000 0.500000
vt 0.125000 0.500000
vt 0.375000 0.500000
vt 0.500000 0.000000
vt 0.625000 0.000000
vt 0.437500 0.000000
vt 0.437500 0.125000
vt 0.437500 0.750000
vt 0.437500 1.000000
vt 0.437500 0.250000
vt 0.437500 0.500000
vt 0.437500 0.625000
vt 0.375000 0.250000
vt 0.375000 0.125000
vt 0.375000 1.000000
vt 0.375000 0.000000
s 0
f 18/1/1 10/2/1 4/3/1 14/4/1
f 14/4/2 4/3/2 39/5/2 8/6/2 15/7/2
f 17/8/3 12/9/3 6/10/3 16/11/3
f 16/11/4 6/10/4 40/12/4 2/13/4 13/14/4
f 9/15/5 11/16/5 5/17/5 1/18/5
f 41/19/6 10/20/6 2/21/6 40/22/6
f 39/23/7 4/24/7 10/20/7 41/19/7
f 3/25/8 7/26/8 11/16/8 9/15/8
f 15/7/9 8/6/9 12/9/9 17/8/9
f 13/27/10 2/28/10 10/2/10 18/1/10
f 30/29/11 13/27/11 18/1/11 29/30/11
f 17/8/12 16/11/12 24/11/12 26/8/12
f 28/31/13 16/11/13 13/14/13 30/32/13
f 28/31/14 5/17/14 25/17/14 33/31/14
f 7/26/15 3/25/15 20/25/15 21/26/15
f 29/30/16 18/1/16 14/4/16 27/33/16
f 32/34/17 22/7/17 26/8/17 34/35/17
f 34/35/18 26/8/18 24/11/18 33/31/18
f 31/33/19 19/4/19 22/7/19 32/34/19
f 11/16/15 7/26/15 21/26/15 23/16/15
f 15/7/20 17/8/20 26/8/20 22/7/20
f 5/17/15 11/16/15 23/16/15 25/17/15
f 27/33/21 14/4/21 19/4/21 31/33/21
f 14/4/22 15/7/22 22/7/22 19/4/22
f 3/36/23 27/33/23 31/33/23 20/36/23
f 31/33/24 32/34/24 38/34/24 35/33/24
f 23/16/25 34/35/25 33/31/25 25/17/25
f 21/26/26 32/34/26 34/35/26 23/16/26
f 9/37/27 29/30/27 27/33/27 3/36/27
f 16/11/28 28/31/28 33/31/28 24/11/28
f 5/17/29 28/31/29 30/32/29 1/38/29
f 1/39/30 30/29/30 29/30/30 9/37/30
f 36/36/31 35/33/31 38/34/31 37/26/31
f 21/26/15 20/25/15 36/25/15 37/26/15
f 32/34/32 21/26/32 37/26/32 38/34/32
f 20/36/33 31/33/33 35/33/33 36/36/33
f 8/6/34 39/23/34 41/19/34 12/9/34
f 12/9/35 41/19/35 40/22/35 6/10/35
