# Blender 4.3.2
# www.blender.org
mtllib rock7.mtl
g rock7_Cube.019
v -0.646963 -0.293094 0.914118
v -0.643863 0.532293 1.276145
v -0.711794 -0.014413 -0.830494
v -0.850303 0.596357 -0.815114
v 0.735768 0.000000 0.668846
v 0.496661 0.535203 0.897683
v 0.836820 0.000000 -0.721281
v 0.188690 0.749955 -0.740709
v -0.949007 -0.190300 0.139351
v -0.898764 0.498484 0.398891
v 0.992669 0.000000 -0.009240
v 1.052635 0.557281 -0.219352
v 0.167199 0.000000 -1.064091
v -0.357769 0.833337 -0.799801
v -0.127362 -0.286996 1.150524
v -0.076142 0.436587 1.188400
v -0.274033 1.041627 0.145547
v -0.000876 -0.374418 0.159048
v -0.560825 -0.377089 0.068466
v 0.660364 -0.306610 0.198760
v 0.112813 -0.434984 -0.755850
v -0.063247 -0.504528 0.891931
vn -0.9902 -0.0388 -0.1344
vn 0.3144 0.3683 -0.8749
vn 0.9012 0.1408 0.4098
vn -0.1510 -0.2421 0.9584
vn 0.6088 -0.6652 0.4324
vn -0.2476 0.9111 0.3295
vn -0.5768 0.8162 -0.0323
vn 0.0971 -0.9922 0.0777
vn 0.7662 0.2401 -0.5960
vn -0.9444 -0.0958 0.3144
vn -0.0058 -0.9978 0.0653
vn 0.2588 0.9495 -0.1773
vn 0.2911 0.9048 0.3109
vn 0.0325 -0.9846 -0.1720
vn 0.4935 -0.1092 0.8629
vn -0.1757 0.1088 -0.9784
vn -0.3616 -0.9196 0.1534
vn -0.3862 -0.8112 -0.4391
vn 0.5246 -0.7862 -0.3265
vn 0.1104 -0.9802 -0.1646
vt 0.375000 0.125000
vt 0.625000 0.125000
vt 0.625000 0.250000
vt 0.375000 0.250000
vt 0.375000 0.375000
vt 0.625000 0.375000
vt 0.625000 0.500000
vt 0.375000 0.500000
vt 0.375000 0.625000
vt 0.625000 0.625000
vt 0.625000 0.750000
vt 0.375000 0.750000
vt 0.375000 0.875000
vt 0.625000 0.875000
vt 0.625000 1.000000
vt 0.375000 1.000000
vt 0.312500 0.625000
vt 0.250000 0.750000
vt 0.250000 0.687500
vt 0.750000 0.625000
vt 0.875000 0.625000
vt 0.875000 0.750000
vt 0.750000 0.750000
vt 0.750000 0.500000
vt 0.875000 0.500000
vt 0.250000 0.562500
vt 0.250000 0.625000
vt 0.375000 0.000000
vt 0.625000 0.000000
vt 0.187500 0.625000
vt 0.125000 0.625000
vt 0.125000 0.750000
vt 0.125000 0.500000
vt 0.250000 0.500000
s 0
f 9/1/1 10/2/1 4/3/1 3/4/1
f 13/5/2 14/6/2 8/7/2 7/8/2
f 11/9/3 12/10/3 6/11/3 5/12/3
f 15/13/4 16/14/4 2/15/4 1/16/4
f 20/17/5 11/9/5 5/12/5 15/18/5 22/19/5
f 17/20/6 10/21/6 2/22/6 16/23/6
f 14/24/7 4/25/7 10/21/7 17/20/7
f 21/26/8 20/17/8 18/27/8
f 7/8/9 8/7/9 12/10/9 11/9/9
f 1/28/10 2/29/10 10/2/10 9/1/10
f 19/30/11 21/26/11 18/27/11
f 8/7/12 14/24/12 17/20/12 12/10/12
f 12/10/13 17/20/13 16/23/13 6/11/13
f 19/30/14 18/27/14 22/19/14
f 5/12/15 6/11/15 16/14/15 15/13/15
f 3/4/16 4/3/16 14/6/16 13/5/16
f 9/31/17 19/30/17 22/19/17 15/18/17 1/32/17
f 3/33/18 13/34/18 21/26/18 19/30/18 9/31/18
f 13/34/19 7/8/19 11/9/19 20/17/19 21/26/19
f 18/27/20 20/17/20 22/19/20
